<?xml version="1.0" encoding="UTF-8"?>
<svg version="1.1" xmlns="http://www.w3.org/2000/svg" width="225" height="225">
<path d="M0 0 C74.25 0 148.5 0 225 0 C225 74.25 225 148.5 225 225 C150.75 225 76.5 225 0 225 C0 150.75 0 76.5 0 0 Z " fill="#FDFDFD" transform="translate(0,0)"/>
<path d="M0 0 C38.28663366 0 38.28663366 0 53.25 7.9375 C53.8790625 8.25912109 54.508125 8.58074219 55.15625 8.91210938 C60.50528847 11.66816883 60.50528847 11.66816883 63.00952148 13.34790039 C69.70650365 17.66369918 75.74507842 17.64388685 83.5625 17.5625 C98.0945584 17.45932318 98.0945584 17.45932318 105 22 C107.51250583 25.76875875 107.53016086 27.53150134 107 32 C103.58229311 37.62267907 99.19885065 40.01514634 93 42 C87.43570146 43.21797239 81.79752207 43.3280665 76.125 43.5625 C75.15046875 43.60568359 74.1759375 43.64886719 73.171875 43.69335938 C70.78137198 43.79882274 68.39077556 43.90094175 66 44 C65.23043864 46.34533951 65.23043864 46.34533951 65 49 C66.10143774 50.77031632 66.10143774 50.77031632 68 52 C70.44935996 52.37076052 70.44935996 52.37076052 73.19140625 52.1796875 C74.73344727 52.1178125 74.73344727 52.1178125 76.30664062 52.0546875 C77.38107422 51.99539062 78.45550781 51.93609375 79.5625 51.875 C80.60986328 51.83890625 81.65722656 51.8028125 82.73632812 51.765625 C91.96091909 51.32990784 100.7751311 49.89038992 108.19091797 44.04614258 C110.42289641 41.52168761 111.34436479 38.99608253 112.6328125 35.88671875 C117.07743018 27.43044284 123.81593811 24.26158054 132.24975586 20.32885742 C134.68897124 19.18681116 137.08811999 17.9815245 139.49023438 16.76367188 C147.79662948 12.66720622 155.51105942 9.06307239 165 11 C169.48469808 12.8328268 172.18434981 14.85299192 175 18.8125 C176.45756373 23.45848438 177.14322178 27.44993242 175.12548828 31.95068359 C171.9440897 37.2012417 168.47000057 40.38953049 163.375 43.75 C162.63499756 44.2538623 161.89499512 44.75772461 161.13256836 45.27685547 C158.76881098 46.87315272 156.38801591 48.44026206 154 50 C152.83283447 50.76715332 152.83283447 50.76715332 151.64208984 51.54980469 C78.95665842 99.08012422 78.95665842 99.08012422 47.58203125 93.37890625 C30.7669131 88.67902851 14.98725704 78.17486748 0 70 C0 46.9 0 23.8 0 0 Z " fill="#1A1A1A" transform="translate(49,130)"/>
<path d="M0 0 C5.56697821 3.99084645 10.53173642 8.73854416 15.5 13.4375 C19.14886715 10.38436627 22.58960335 7.37414493 25.8125 3.875 C31.62237556 -2.06661877 39.62340886 -5.62949416 47.89428711 -5.85498047 C59.60989432 -5.96636363 69.38108435 -3.31961161 78.5 4.4375 C81.17702936 7.24705557 83.38963796 10.18448079 85.5 13.4375 C86.15355469 14.41783203 86.15355469 14.41783203 86.8203125 15.41796875 C91.09365021 23.14284846 90.82202081 33.87745821 88.81640625 42.3125 C88 44.5 88 44.5 86.5 47.4375 C84.52 47.4375 82.54 47.4375 80.5 47.4375 C80.46132813 45.80941406 80.46132813 45.80941406 80.421875 44.1484375 C80.36556262 42.70308651 80.308216 41.25777556 80.25 39.8125 C80.23582031 39.09964844 80.22164062 38.38679688 80.20703125 37.65234375 C79.97243385 32.53812047 78.91677718 29.45515869 75.5 25.4375 C69.91775619 21.42800517 64.70548005 21.95807643 58.0625 22 C56.94294922 21.98001953 55.82339844 21.96003906 54.66992188 21.93945312 C48.50778882 21.94311018 44.17670998 21.98313756 39.5 26.4375 C35.75123717 30.87814859 34.87098719 34.6371011 34.75 40.3125 C34.72035156 41.00085937 34.69070312 41.68921875 34.66015625 42.3984375 C34.59019464 44.07751626 34.54274789 45.75750812 34.5 47.4375 C33.55898437 47.47488281 32.61796875 47.51226562 31.6484375 47.55078125 C29.78058594 47.64939453 29.78058594 47.64939453 27.875 47.75 C26.03035156 47.83701172 26.03035156 47.83701172 24.1484375 47.92578125 C18.49810634 48.71827952 14.00721202 50.76461996 10.44189453 55.39453125 C8.2852898 60.07220579 8.83407946 65.39505001 8.9375 70.4375 C8.92106445 72.18160156 8.92106445 72.18160156 8.90429688 73.9609375 C8.97385062 82.53408728 8.97385062 82.53408728 13.5 89.4375 C17.65967709 92.85411744 21.64490931 92.96336848 26.8125 93.125 C27.55306641 93.15916016 28.29363281 93.19332031 29.05664062 93.22851562 C30.87058164 93.31043554 32.68526353 93.37565822 34.5 93.4375 C35.26567775 98.43626498 35.65043146 102.66824559 32.8125 107.03271484 C30.47804805 109.53992029 28.05550941 111.84384332 25.5 114.125 C24.64148438 114.93388672 23.78296875 115.74277344 22.8984375 116.57617188 C20.78838963 118.55727238 18.65726635 120.50813635 16.5 122.4375 C8.08406883 115.28987207 -0.12839023 107.92768817 -7.86328125 100.04296875 C-9.65931423 98.28122757 -11.53082661 96.64114054 -13.4375 95 C-17.67137859 91.34868998 -21.58703254 87.42702552 -25.5 83.4375 C-26.304375 82.633125 -27.10875 81.82875 -27.9375 81 C-29.2059375 79.7315625 -29.2059375 79.7315625 -30.5 78.4375 C-31.15613281 77.82777344 -31.81226562 77.21804687 -32.48828125 76.58984375 C-41.5082605 68.00606384 -48.55553742 57.87762912 -53.5 46.4375 C-53.81839844 45.75945313 -54.13679688 45.08140625 -54.46484375 44.3828125 C-58.05008068 35.62624304 -58.12840291 23.16092572 -54.53515625 14.38671875 C-49.61348214 5.11911354 -42.34743121 -1.03228881 -32.5 -4.5625 C-21.48283902 -7.17519323 -9.68118754 -6.07008739 0 0 Z " fill="#191919" transform="translate(108.5,6.5625)"/>
<path d="M0 0 C1.3602832 -0.0299707 1.3602832 -0.0299707 2.74804688 -0.06054688 C3.62396484 -0.05990234 4.49988281 -0.05925781 5.40234375 -0.05859375 C6.20019287 -0.06044678 6.99804199 -0.0622998 7.82006836 -0.06420898 C10.96650994 0.63975808 12.14197037 1.88013043 14.0625 4.4375 C14.51660156 7.00292969 14.51660156 7.00292969 14.453125 9.859375 C14.44023437 10.88417969 14.42734375 11.90898438 14.4140625 12.96484375 C14.38054687 14.02832031 14.34703125 15.09179688 14.3125 16.1875 C14.29445312 17.26644531 14.27640625 18.34539063 14.2578125 19.45703125 C14.21071415 22.11808788 14.144956 24.77734254 14.0625 27.4375 C15.08404175 27.41393433 15.08404175 27.41393433 16.1262207 27.38989258 C19.20906281 27.32756778 22.29177244 27.28851742 25.375 27.25 C26.44685547 27.22486328 27.51871094 27.19972656 28.62304688 27.17382812 C29.65107422 27.16416016 30.67910156 27.15449219 31.73828125 27.14453125 C32.68614502 27.1288208 33.63400879 27.11311035 34.6105957 27.09692383 C37.0625 27.4375 37.0625 27.4375 38.86816406 28.65698242 C41.27747753 32.24879009 40.53078921 36.75576575 40.5 40.9375 C40.51998047 41.90042969 40.53996094 42.86335938 40.56054688 43.85546875 C40.55958008 45.24185547 40.55958008 45.24185547 40.55859375 46.65625 C40.56044678 47.50123047 40.5622998 48.34621094 40.56420898 49.21679688 C40.0625 51.4375 40.0625 51.4375 38.37036133 53.21801758 C35.57917691 54.6928897 33.78705864 54.78290931 30.640625 54.73046875 C29.10341797 54.7159668 29.10341797 54.7159668 27.53515625 54.70117188 C26.47167969 54.67603516 25.40820312 54.65089844 24.3125 54.625 C23.23355469 54.61146484 22.15460938 54.59792969 21.04296875 54.58398438 C18.3823058 54.54866584 15.72265704 54.49934199 13.0625 54.4375 C13.07821045 55.11852783 13.0939209 55.79955566 13.11010742 56.5012207 C13.17243222 59.58406281 13.21148258 62.66677244 13.25 65.75 C13.27513672 66.82185547 13.30027344 67.89371094 13.32617188 68.99804688 C13.33583984 70.02607422 13.34550781 71.05410156 13.35546875 72.11328125 C13.3711792 73.06114502 13.38688965 74.00900879 13.40307617 74.9855957 C13.0625 77.4375 13.0625 77.4375 11.8293457 79.24536133 C9.58264392 80.7612719 8.19947517 80.82456331 5.5 80.8359375 C4.62085938 80.83980469 3.74171875 80.84367187 2.8359375 80.84765625 C1.46308594 80.83025391 1.46308594 80.83025391 0.0625 80.8125 C-1.31035156 80.82990234 -1.31035156 80.82990234 -2.7109375 80.84765625 C-3.59007812 80.84378906 -4.46921875 80.83992188 -5.375 80.8359375 C-6.57962891 80.83086182 -6.57962891 80.83086182 -7.80859375 80.82568359 C-9.9375 80.4375 -9.9375 80.4375 -11.7043457 79.24536133 C-13.39119719 76.77235891 -13.27981739 75.09064912 -13.23046875 72.11328125 C-13.22080078 71.08525391 -13.21113281 70.05722656 -13.20117188 68.99804688 C-13.17603516 67.92619141 -13.15089844 66.85433594 -13.125 65.75 C-13.10469727 64.12481445 -13.10469727 64.12481445 -13.08398438 62.46679688 C-13.04860643 59.78986595 -12.99924189 57.11393162 -12.9375 54.4375 C-13.61329102 54.45844727 -14.28908203 54.47939453 -14.98535156 54.50097656 C-18.05258254 54.58421643 -21.11957582 54.63618466 -24.1875 54.6875 C-25.25097656 54.72101563 -26.31445312 54.75453125 -27.41015625 54.7890625 C-28.43496094 54.80195312 -29.45976562 54.81484375 -30.515625 54.828125 C-31.45825195 54.84907227 -32.40087891 54.87001953 -33.37207031 54.89160156 C-36.75606094 54.29260817 -37.89998269 53.16702651 -39.9375 50.4375 C-40.43920898 48.19506836 -40.43920898 48.19506836 -40.43359375 45.77734375 C-40.43423828 44.90142578 -40.43488281 44.02550781 -40.43554688 43.12304688 C-40.41556641 42.21619141 -40.39558594 41.30933594 -40.375 40.375 C-40.38208984 39.46427734 -40.38917969 38.55355469 -40.39648438 37.61523438 C-40.33339053 31.02920735 -40.33339053 31.02920735 -38.75683594 28.67285156 C-36.22473739 26.95352539 -34.43760569 27.09622848 -31.39453125 27.14453125 C-29.78481445 27.1590332 -29.78481445 27.1590332 -28.14257812 27.17382812 C-27.02302734 27.19896484 -25.90347656 27.22410156 -24.75 27.25 C-23.61884766 27.26353516 -22.48769531 27.27707031 -21.32226562 27.29101562 C-18.52686683 27.32640042 -15.73242108 27.37577052 -12.9375 27.4375 C-12.95321045 26.7261792 -12.9689209 26.0148584 -12.98510742 25.28198242 C-13.04741915 22.06306896 -13.08647867 18.84428232 -13.125 15.625 C-13.15013672 14.50544922 -13.17527344 13.38589844 -13.20117188 12.23242188 C-13.21083984 11.15927734 -13.22050781 10.08613281 -13.23046875 8.98046875 C-13.2461792 7.99071045 -13.26188965 7.00095215 -13.27807617 5.98120117 C-12.9375 3.4375 -12.9375 3.4375 -11.70214844 1.61816406 C-8.2318782 -0.70367142 -4.04094583 -0.03145818 0 0 Z " fill="#D8463F" transform="translate(165.9375,36.5625)"/>
<path d="M0 0 C13.2 0 26.4 0 40 0 C40 27.39 40 54.78 40 83 C26.8 83 13.6 83 0 83 C0 55.61 0 28.22 0 0 Z " fill="#1B1B1B" transform="translate(0,124)"/>
</svg>
